name D:\PhD\Datasets\SharingData_IBEC_VALDUCE\HM_Comp_0001.mot
datacolumns 46
datarows 9
range 0.01000000 0.09000000
endheader
                time	         pelvis_tilt	     pelvis_rotation	           pelvis_tx	           pelvis_ty	           pelvis_tz	       hip_flexion_r	     hip_adduction_r	      hip_rotation_r	        knee_angle_r	       ankle_angle_r	    subtalar_angle_r	         mtp_angle_r	       hip_flexion_l	     hip_adduction_l	      hip_rotation_l	        knee_angle_l	       ankle_angle_l	    subtalar_angle_l	         mtp_angle_l	    lumbar_extension	      lumbar_bending	     lumbar_rotation	          arm_flex_r	           arm_add_r	           arm_rot_r	        elbow_flex_r	           pro_sup_r	        wrist_flex_r	         wrist_dev_r	          arm_flex_l	           arm_add_l	           arm_rot_l	        elbow_flex_l	           pro_sup_l	        wrist_flex_l	         wrist_dev_l	          end_eff_tx	          end_eff_ty	          end_eff_tz	             goal_tx	             goal_ty	             goal_tz	            elbow_tx	            elbow_ty	            elbow_tz	
          0.01000000	          0.00000000	          0.00000000	        360.45884486	        501.33858707	        380.26764439	          0.00000000	          0.00000000	          0.00000000	          0.00000000	          0.00000000	          0.00000000	          0.00000000	          0.00000000	          0.00000000	          0.00000000	          0.00000000	          0.00000000	          0.00000000	          0.00000000	         -3.79440928	          6.68818998	         -3.94631767	         -5.78481197	        -37.69417191	          6.19357872	         87.72042847	         83.40235138	          0.00000000	          0.00000000	          0.00000000	          0.00000000	          0.00000000	          0.00000000	          0.00000000	          0.00000000	          0.00000000	        593.45088859	        237.14732770	        594.40567900	        610.28443112	        246.65383734	        541.85378202	        194.83516765	        302.95402674	        698.88778850	
          0.02000000	          0.00000000	          0.00000000	        360.50596276	        501.26407118	        380.28040160	          0.00000000	          0.00000000	          0.00000000	          0.00000000	          0.00000000	          0.00000000	          0.00000000	          0.00000000	          0.00000000	          0.00000000	          0.00000000	          0.00000000	          0.00000000	          0.00000000	         -3.78858614	          6.66688347	         -3.93942094	         -5.80016279	        -37.67824936	          6.20229149	         87.71953583	         83.38285828	          0.00000000	          0.00000000	          0.00000000	          0.00000000	          0.00000000	          0.00000000	          0.00000000	          0.00000000	          0.00000000	        593.53745517	        237.08672902	        594.36145233	        610.30785096	        246.64346582	        541.69812740	        194.90116713	        302.85177958	        698.83767899	
          0.03000000	          0.00000000	          0.00000000	        360.57018889	        501.20577346	        380.28297728	          0.00000000	          0.00000000	          0.00000000	          0.00000000	          0.00000000	          0.00000000	          0.00000000	          0.00000000	          0.00000000	          0.00000000	          0.00000000	          0.00000000	          0.00000000	          0.00000000	         -3.78036332	          6.67491627	         -3.95605659	         -5.80209446	        -37.66801834	          6.23333597	         87.73336792	         83.36222076	          0.00000000	          0.00000000	          0.00000000	          0.00000000	          0.00000000	          0.00000000	          0.00000000	          0.00000000	          0.00000000	        593.59676524	        237.03368801	        594.27976273	        610.32989895	        246.61115455	        541.54819921	        194.97853576	        302.81746653	        698.80949026	
          0.04000000	          0.00000000	          0.00000000	        360.74215683	        501.19943809	        380.31832412	          0.00000000	          0.00000000	          0.00000000	          0.00000000	          0.00000000	          0.00000000	          0.00000000	          0.00000000	          0.00000000	          0.00000000	          0.00000000	          0.00000000	          0.00000000	          0.00000000	         -4.20360899	          6.75811481	         -3.99210596	         -5.29093361	        -37.68509674	          6.23214006	         87.63916779	         82.48542786	          0.00000000	          0.00000000	          0.00000000	          0.00000000	          0.00000000	          0.00000000	          0.00000000	          0.00000000	          0.00000000	        593.56360349	        237.61644752	        594.05619106	        610.33018328	        246.56655480	        541.39825150	        195.02619903	        302.73744914	        698.73367364	
          0.05000000	          0.00000000	          0.00000000	        360.79712290	        501.15337393	        380.32388129	          0.00000000	          0.00000000	          0.00000000	          0.00000000	          0.00000000	          0.00000000	          0.00000000	          0.00000000	          0.00000000	          0.00000000	          0.00000000	          0.00000000	          0.00000000	          0.00000000	         -4.23875141	          6.76563025	         -3.99669766	         -5.26399422	        -37.67428970	          6.24893808	         87.63925934	         82.47239685	          0.00000000	          0.00000000	          0.00000000	          0.00000000	          0.00000000	          0.00000000	          0.00000000	          0.00000000	          0.00000000	        593.62670819	        237.60801001	        593.97982582	        610.37219293	        246.56438390	        541.21161418	        195.06930353	        302.61782020	        698.65606898	
          0.06000000	          0.00000000	          0.00000000	        360.77951089	        500.93614605	        380.31143030	          0.00000000	          0.00000000	          0.00000000	          0.00000000	          0.00000000	          0.00000000	          0.00000000	          0.00000000	          0.00000000	          0.00000000	          0.00000000	          0.00000000	          0.00000000	          0.00000000	         -4.41360998	          6.98794365	         -4.29730749	         -4.81551886	        -37.97688293	          6.61900425	         87.66154480	         82.46672821	          0.00000000	          0.00000000	          0.00000000	          0.00000000	          0.00000000	          0.00000000	          0.00000000	          0.00000000	          0.00000000	        593.67675325	        237.38254341	        594.02357812	        610.47880171	        246.42149329	        541.03881346	        195.17980339	        302.48723705	        698.55893730	
          0.07000000	          0.00000000	          0.00000000	        360.85085035	        500.90741362	        380.29910227	          0.00000000	          0.00000000	          0.00000000	          0.00000000	          0.00000000	          0.00000000	          0.00000000	          0.00000000	          0.00000000	          0.00000000	          0.00000000	          0.00000000	          0.00000000	          0.00000000	         -4.33770657	          7.03192139	         -4.33948278	         -4.86646461	        -38.02554703	          6.67207384	         87.67914581	         82.44431305	          0.00000000	          0.00000000	          0.00000000	          0.00000000	          0.00000000	          0.00000000	          0.00000000	          0.00000000	          0.00000000	        593.73651148	        237.32633315	        593.95912828	        610.51055752	        246.42492835	        540.91377817	        195.20530275	        302.35867563	        698.47189652	
          0.08000000	          0.00000000	          0.00000000	        360.70650560	        500.80723117	        380.25152089	          0.00000000	          0.00000000	          0.00000000	          0.00000000	          0.00000000	          0.00000000	          0.00000000	          0.00000000	          0.00000000	          0.00000000	          0.00000000	          0.00000000	          0.00000000	          0.00000000	         -4.86531019	          7.05771637	         -4.13558531	         -4.45440149	        -37.98296356	          6.48939943	         87.68248749	         82.42544556	          0.00000000	          0.00000000	          0.00000000	          0.00000000	          0.00000000	          0.00000000	          0.00000000	          0.00000000	          0.00000000	        593.75669109	        237.22927143	        593.85294191	        610.30540604	        246.29494048	        540.80491102	        195.20089152	        302.26090005	        698.34822386	
          0.09000000	          0.00000000	          0.00000000	        360.74295487	        500.75857188	        380.23022034	          0.00000000	          0.00000000	          0.00000000	          0.00000000	          0.00000000	          0.00000000	          0.00000000	          0.00000000	          0.00000000	          0.00000000	          0.00000000	          0.00000000	          0.00000000	          0.00000000	         -4.94376278	          7.07786322	         -4.14162445	         -4.36413336	        -37.97934723	          6.51172066	         87.67185211	         82.45512390	          0.00000000	          0.00000000	          0.00000000	          0.00000000	          0.00000000	          0.00000000	          0.00000000	          0.00000000	          0.00000000	        593.76033660	        237.14600372	        593.74992536	        610.29276224	        246.23435691	        540.67486920	        195.20359137	        302.12965554	        698.22225010	
